<svg fill="none" fill-rule="evenodd" stroke="black" stroke-width="0.501" stroke-linejoin="bevel" stroke-miterlimit="10" font-family="Times New Roman" font-size="16" style="font-variant-ligatures:none" xmlns:xlink="http://www.w3.org/1999/xlink" xmlns="http://www.w3.org/2000/svg" version="1.1" overflow="visible" width="525.755pt" height="133.502pt" viewBox="-989.252 -307.437 525.755 133.502">
 <defs>
	</defs>
 <g id="Background" transform="scale(1 -1)"/>
 <g id="Your Design Here" transform="scale(1 -1)">
  <g id="Group" stroke-linejoin="miter" stroke="none">
   <g id="Group_1">
    <g id="Group_2">
     <path d="M -929.624,205.813 C -930.948,206.199 -932.166,206.525 -933.3,206.799 L -928.628,206.799 L -928.628,221.609 L -921.634,221.609 L -921.634,206.799 L -900.008,206.799 L -900.008,222.657 L -881.016,217.895 L -881.002,217.889 C -881.506,217.015 -882.028,216.131 -882.578,215.237 L -882.594,215.237 L -885.084,215.581 L -885.084,211.389 L -885.084,211.389 C -886.694,209.031 -888.48,206.659 -890.43,204.261 L -925.45,204.261 C -926.652,204.855 -927.974,205.335 -929.624,205.813 Z M -889.36,206.799 L -889.36,216.177 L -894.496,216.893 L -894.496,206.799 L -889.36,206.799 Z M -934.712,207.115 L -937.704,207.509 L -937.702,226.027 L -941.248,223.269 L -941.248,228.233 L -919.376,245.543 L -908.846,240.715 L -905.296,243.201 L -896.846,238.899 L -896.846,235.195 L -883.726,229.179 L -877.68,224.369 L -877.666,224.355 C -878.422,222.731 -879.248,221.071 -880.176,219.377 L -880.18,219.377 L -899.216,224.325 L -919.424,240.297 L -934.1,228.843 L -934.1,206.969 L -934.102,206.979 C -934.308,207.025 -934.51,207.069 -934.712,207.115 Z M -926.44,213.653 C -926.44,214.117 -926.816,214.493 -927.286,214.493 C -927.748,214.493 -928.124,214.117 -928.124,213.653 C -928.124,213.191 -927.748,212.811 -927.286,212.811 C -926.816,212.811 -926.44,213.191 -926.44,213.653 Z M -916.12,213.309 L -916.12,221.609 L -907.372,221.609 L -907.372,213.309 L -916.12,213.309 Z M -922.82,227.223 L -922.82,230.071 L -919.968,230.071 L -919.968,227.223 L -922.82,227.223 Z M -919.182,227.223 L -919.182,230.071 L -916.332,230.071 L -916.332,227.223 L -919.182,227.223 Z M -922.82,230.863 L -922.82,233.709 L -919.968,233.709 L -919.968,230.863 L -922.82,230.863 Z M -919.182,230.863 L -919.182,233.709 L -916.332,233.709 L -916.332,230.863 L -919.182,230.863 Z" fill="#bb2b2b" marker-start="none" marker-end="none"/>
     <path d="M -926.39,178.441 L -934.926,184.509 C -963.674,202.775 -989.252,241.195 -989.252,268.023 C -989.252,289.141 -973.538,307.437 -952.684,307.437 C -923.494,307.437 -927.946,270.145 -913.672,270.065 L -913.672,270.065 C -899.4,270.145 -903.85,307.437 -874.66,307.437 C -853.808,307.437 -840,290.169 -840,268.023 C -840,233.509 -862.522,204.741 -892.894,198.025 C -876.376,216.115 -869.9,234.293 -869.9,246.231 C -869.9,263.675 -884.98,274.909 -897.482,259.103 C -902.416,252.869 -907.162,247.529 -913.672,247.153 L -913.672,247.153 L -913.672,247.153 C -920.186,247.529 -924.934,252.869 -929.86,259.103 C -942.372,274.909 -959.314,262.387 -959.314,246.231 C -959.314,231.287 -947.726,213.363 -938.798,205.437 C -936.738,205.361 -933.988,204.793 -930.244,203.687 C -926.382,202.575 -924.572,201.511 -921.62,198.635 C -920.172,197.239 -917.786,195.229 -916.33,194.157 C -913.984,192.493 -913.03,192.041 -909.208,190.869 C -903.09,188.967 -901.154,187.681 -901.14,185.519 C -901.134,184.493 -901.224,184.339 -902.282,183.917 C -902.894,183.669 -903.394,183.395 -903.378,183.367 C -903.272,183.179 -897.71,183.469 -896.286,183.723 C -895.374,183.893 -893.564,184.493 -892.22,185.105 C -888.89,186.555 -887.49,186.793 -885.714,186.251 C -884.896,185.975 -883.732,185.739 -883.18,185.713 C -882.624,185.653 -881.882,185.405 -881.572,185.141 C -880.796,184.493 -880.666,184.243 -880.494,183.051 C -880.31,181.905 -880.694,181.483 -882.224,181.027 C -882.814,180.859 -884.942,180.047 -886.946,179.197 C -892.908,176.699 -898.398,175.065 -901.24,174.979 C -905.666,174.835 -911.256,174.497 -913.328,174.251 C -919.22,173.503 -920.078,173.787 -926.39,178.441 Z" fill="#bb2b2b" marker-start="none" marker-end="none"/>
     <path d="M -873.052,298.507 C -883.586,298.507 -893.92,293.539 -901.91,283.883 C -897.364,294.529 -891.834,307.437 -874.66,307.437 C -853.808,307.437 -840,290.169 -840,268.023 C -840,246.053 -849.122,226.415 -863.586,213.309 C -845.602,247.587 -842.914,298.507 -873.052,298.507 Z" fill="#d45f5f" marker-start="none" marker-end="none"/>
     <path d="M -965.228,248.625 C -965.228,261.993 -955.834,271.107 -943.56,271.107 C -924.528,271.107 -924.25,249.569 -915.24,247.339 C -920.966,248.409 -925.34,253.375 -929.86,259.103 C -942.372,274.909 -959.314,262.387 -959.314,246.231 C -959.314,231.287 -947.726,213.363 -938.798,205.437 C -952.052,216.431 -965.228,231.601 -965.228,248.625 Z M -913.672,247.153 L -913.83,247.161 C -913.796,247.155 -913.77,247.153 -913.722,247.153 C -913.718,247.153 -913.694,247.153 -913.672,247.153 Z" fill="#a51f1f" marker-start="none" marker-end="none"/>
     <path d="M -905.288,239.075 L -908.846,240.715 L -905.296,243.201 L -905.288,239.075 Z" fill="#d45f5f" marker-start="none" marker-end="none"/>
     <path d="M -896.846,235.197 L -905.288,239.075 L -905.296,243.201 L -896.846,238.899 L -896.846,235.197 Z" fill="#bb2b2b" marker-start="none" marker-end="none"/>
    </g>
    <path d="M -962.522,267.517 L -969.336,290.577 L -975.57,274.693 C -975.826,274.047 -976.446,273.623 -977.14,273.623 L -988.882,273.623 C -988.74,274.725 -988.546,275.817 -988.316,276.897 L -988.27,276.935 L -988.18,277.001 L -978.294,277.001 L -970.686,296.395 C -970.098,297.887 -967.948,297.799 -967.49,296.257 L -960.598,272.929 L -954.34,287.291 C -953.748,288.663 -951.796,288.639 -951.232,287.261 L -946.91,276.843 L -945.834,278.585 C -945.526,279.075 -944.986,279.383 -944.394,279.383 L -923.454,279.383 C -922.896,278.173 -922.322,277.037 -921.724,276.005 L -943.456,276.005 L -945.776,272.265 C -946.5,271.103 -948.248,271.239 -948.774,272.511 L -952.83,282.301 L -959.356,267.321 C -959.984,265.871 -962.08,266.007 -962.522,267.517 Z" fill="#a51f1f" marker-start="none" marker-end="none"/>
    <path d="M -961.818,268.357 L -969.396,294.007 L -976.614,275.617 C -976.728,275.319 -977.012,275.133 -977.324,275.133 L -988.656,275.133 C -988.566,275.641 -988.466,276.151 -988.364,276.657 L -977.842,276.657 L -970.006,296.637 C -969.738,297.313 -968.766,297.273 -968.562,296.575 L -960.952,270.801 L -953.674,287.505 C -953.406,288.119 -952.526,288.111 -952.268,287.493 L -947.26,275.405 L -945.226,278.673 C -945.09,278.903 -944.846,279.039 -944.578,279.039 L -923.294,279.039 C -923.046,278.511 -922.796,278.001 -922.544,277.513 L -944.154,277.513 L -946.746,273.337 C -947.076,272.813 -947.862,272.873 -948.102,273.447 L -952.99,285.251 L -960.386,268.273 C -960.668,267.621 -961.616,267.679 -961.818,268.357 Z" fill="#8f1a1a" marker-start="none" marker-end="none"/>
   </g>
   <g id="Group_3" fill="#bb2b2b">
    <text xml:space="preserve" transform="translate(-828.732 222.465) scale(1 -1)" kerning="auto" font-size="89.568" font-family="Pacifico"><tspan x="0" y="0">Harmony</tspan></text>
    <text xml:space="preserve" transform="translate(-828.056 180.757) scale(1 -1)" kerning="auto" font-size="36.184" font-weight="bold" font-family="Outfit"><tspan x="0" y="0">Homecare LLC</tspan></text>
   </g>
  </g>
 </g>
 <g id="Watermark" transform="scale(1 -1)"/>
 <g id="MouseOff" transform="scale(1 -1)"/>
</svg>